<mxfile host="app.diagrams.net" modified="2023-11-18T10:32:01.468Z" agent="Mozilla/5.0 (Windows NT 10.0; Win64; x64) AppleWebKit/537.36 (KHTML, like Gecko) Chrome/119.0.0.0 Safari/537.36" etag="QKxmivzxX3Kw2hQ1omC5" version="22.1.2" type="device">
  <diagram name="Страница — 1" id="DtdS_Q2pG6pEkEfrlNOt">
    <mxGraphModel dx="1772" dy="1693" grid="1" gridSize="10" guides="1" tooltips="1" connect="1" arrows="1" fold="1" page="1" pageScale="1" pageWidth="827" pageHeight="1169" math="0" shadow="0">
      <root>
        <mxCell id="0" />
        <mxCell id="1" parent="0" />
        <mxCell id="wYFcUYn46FQ1dUPHtm7m-70" value="" style="rounded=0;whiteSpace=wrap;html=1;" parent="1" vertex="1">
          <mxGeometry x="-20" y="-20" width="1150" height="1350" as="geometry" />
        </mxCell>
        <mxCell id="wYFcUYn46FQ1dUPHtm7m-10" value="&lt;p style=&quot;margin:0px;margin-top:6px;text-align:center;&quot;&gt;&lt;b&gt;View&lt;/b&gt;&lt;/p&gt;&lt;hr&gt;&lt;p style=&quot;margin:0px;margin-left:8px;&quot;&gt;- Presenter Presenter&lt;/p&gt;&lt;p style=&quot;margin:0px;margin-left:8px;&quot;&gt;&lt;br&gt;&lt;/p&gt;&lt;p style=&quot;margin:0px;margin-left:8px;&quot;&gt;+ setPresenter(Presenter Presenter)&lt;/p&gt;&lt;p style=&quot;margin:0px;margin-left:8px;&quot;&gt;+ formPOST(): Map formData&lt;/p&gt;&lt;p style=&quot;margin:0px;margin-left:8px;&quot;&gt;+ formGET(Json data)&lt;/p&gt;&lt;p style=&quot;margin:0px;margin-left:8px;&quot;&gt;+ haveAutorization(String [] data)&lt;br&gt;&lt;/p&gt;" style="align=left;overflow=fill;html=1;dropTarget=0;whiteSpace=wrap;" parent="1" vertex="1">
          <mxGeometry x="270" y="10" width="210" height="130" as="geometry" />
        </mxCell>
        <mxCell id="wYFcUYn46FQ1dUPHtm7m-11" value="" style="shape=component;jettyWidth=8;jettyHeight=4;" parent="wYFcUYn46FQ1dUPHtm7m-10" vertex="1">
          <mxGeometry x="1" width="20" height="20" relative="1" as="geometry">
            <mxPoint x="-24" y="4" as="offset" />
          </mxGeometry>
        </mxCell>
        <mxCell id="wYFcUYn46FQ1dUPHtm7m-15" value="View" style="shape=umlFrame;whiteSpace=wrap;html=1;pointerEvents=0;width=130;height=40;" parent="1" vertex="1">
          <mxGeometry x="60" y="-10" width="1010" height="200" as="geometry" />
        </mxCell>
        <mxCell id="wYFcUYn46FQ1dUPHtm7m-16" value="Presenter" style="shape=umlFrame;whiteSpace=wrap;html=1;pointerEvents=0;width=130;height=40;" parent="1" vertex="1">
          <mxGeometry x="60" y="230" width="1010" height="360" as="geometry" />
        </mxCell>
        <mxCell id="wYFcUYn46FQ1dUPHtm7m-17" value="Model" style="shape=umlFrame;whiteSpace=wrap;html=1;pointerEvents=0;width=130;height=40;" parent="1" vertex="1">
          <mxGeometry x="60" y="630" width="1050" height="600" as="geometry" />
        </mxCell>
        <mxCell id="wYFcUYn46FQ1dUPHtm7m-18" value="&lt;p style=&quot;margin:0px;margin-top:6px;text-align:center;&quot;&gt;&lt;b&gt;Presenter&lt;/b&gt;&lt;/p&gt;&lt;hr&gt;&lt;p style=&quot;margin:0px;margin-left:8px;&quot;&gt;- iView: iView&lt;br&gt;&lt;/p&gt;&lt;p style=&quot;margin:0px;margin-left:8px;&quot;&gt;- iRepo: iRepo&lt;/p&gt;&lt;p style=&quot;margin:0px;margin-left:8px;&quot;&gt;&lt;br&gt;&lt;/p&gt;&lt;p style=&quot;margin:0px;margin-left:8px;&quot;&gt;+ setIView(iView iView)&lt;/p&gt;&lt;p style=&quot;margin:0px;margin-left:8px;&quot;&gt;+ getIView: iView&lt;/p&gt;&lt;p style=&quot;margin:0px;margin-left:8px;&quot;&gt;+ setIRepo(iRepo iRepo)&lt;/p&gt;&lt;p style=&quot;margin:0px;margin-left:8px;&quot;&gt;+ getIRepo: iRepo&lt;/p&gt;&lt;p style=&quot;margin:0px;margin-left:8px;&quot;&gt;+ checkFormData(iView iView)&lt;/p&gt;&lt;p style=&quot;margin:0px;margin-left:8px;&quot;&gt;+ createBooking(iView): Booking&lt;/p&gt;&lt;p style=&quot;margin:0px;margin-left:8px;&quot;&gt;+ makeResponce(Booking): Json&lt;/p&gt;" style="align=left;overflow=fill;html=1;dropTarget=0;whiteSpace=wrap;" parent="1" vertex="1">
          <mxGeometry x="450" y="330" width="200" height="200" as="geometry" />
        </mxCell>
        <mxCell id="wYFcUYn46FQ1dUPHtm7m-19" value="" style="shape=component;jettyWidth=8;jettyHeight=4;" parent="wYFcUYn46FQ1dUPHtm7m-18" vertex="1">
          <mxGeometry x="1" width="20" height="20" relative="1" as="geometry">
            <mxPoint x="-24" y="4" as="offset" />
          </mxGeometry>
        </mxCell>
        <mxCell id="wYFcUYn46FQ1dUPHtm7m-20" value="&lt;div style=&quot;text-align: center;&quot;&gt;&lt;b&gt;Repo&lt;/b&gt;&lt;/div&gt;&lt;hr&gt;&lt;p style=&quot;margin:0px;margin-left:8px;&quot;&gt;- ListTable: Table[1..*]&lt;br&gt;&lt;/p&gt;&lt;p style=&quot;margin:0px;margin-left:8px;&quot;&gt;- ListClient: Client[1...*]&lt;/p&gt;&lt;p style=&quot;margin:0px;margin-left:8px;&quot;&gt;- ListKoeff: Koeff[1...*]&lt;/p&gt;&lt;p style=&quot;margin:0px;margin-left:8px;&quot;&gt;- Schedule: Schedule&lt;/p&gt;&lt;p style=&quot;margin:0px;margin-left:8px;&quot;&gt;&lt;br&gt;&lt;/p&gt;&lt;p style=&quot;margin:0px;margin-left:8px;&quot;&gt;+ setHall(int idHall)&lt;/p&gt;&lt;p style=&quot;margin:0px;margin-left:8px;&quot;&gt;+ getHall(): int&lt;/p&gt;&lt;p style=&quot;margin:0px;margin-left:8px;&quot;&gt;+ setTable(int idTable)&lt;/p&gt;&lt;p style=&quot;margin:0px;margin-left:8px;&quot;&gt;+ getTable(): int&lt;/p&gt;&lt;p style=&quot;margin:0px;margin-left:8px;&quot;&gt;+ setDateTime(DateTime dateTime)&lt;/p&gt;&lt;p style=&quot;margin:0px;margin-left:8px;&quot;&gt;+ getDateTime(): DateTime&lt;/p&gt;&lt;p style=&quot;margin:0px;margin-left:8px;&quot;&gt;+ setCountClient(int count)&lt;/p&gt;&lt;p style=&quot;margin:0px;margin-left:8px;&quot;&gt;+ getCountClient(): int&lt;/p&gt;&lt;p style=&quot;margin:0px;margin-left:8px;&quot;&gt;+ getDeposit(): Float&lt;/p&gt;&lt;p style=&quot;margin:0px;margin-left:8px;&quot;&gt;+ addInShedule(): bool&lt;/p&gt;&lt;p style=&quot;margin:0px;margin-left:8px;&quot;&gt;+ getListClient(): Client[1...*]&lt;/p&gt;&lt;p style=&quot;margin:0px;margin-left:8px;&quot;&gt;+ getListTable(): Table[1...*]&lt;/p&gt;&lt;p style=&quot;margin:0px;margin-left:8px;&quot;&gt;+ getListKoeff(): Koff[1...*]&lt;/p&gt;" style="align=left;overflow=fill;html=1;dropTarget=0;whiteSpace=wrap;" parent="1" vertex="1">
          <mxGeometry x="314" y="660" width="200" height="290" as="geometry" />
        </mxCell>
        <mxCell id="wYFcUYn46FQ1dUPHtm7m-21" value="" style="shape=component;jettyWidth=8;jettyHeight=4;" parent="wYFcUYn46FQ1dUPHtm7m-20" vertex="1">
          <mxGeometry x="1" width="20" height="20" relative="1" as="geometry">
            <mxPoint x="-24" y="4" as="offset" />
          </mxGeometry>
        </mxCell>
        <mxCell id="wYFcUYn46FQ1dUPHtm7m-22" value="«interface»&lt;br&gt;&lt;b&gt;iView&lt;/b&gt;" style="html=1;whiteSpace=wrap;" parent="1" vertex="1">
          <mxGeometry x="130" y="310" width="210" height="50" as="geometry" />
        </mxCell>
        <mxCell id="wYFcUYn46FQ1dUPHtm7m-24" value="" style="endArrow=block;dashed=1;endFill=0;endSize=12;html=1;rounded=0;entryX=0.5;entryY=0;entryDx=0;entryDy=0;exitX=-0.01;exitY=0.126;exitDx=0;exitDy=0;exitPerimeter=0;" parent="1" source="wYFcUYn46FQ1dUPHtm7m-10" target="wYFcUYn46FQ1dUPHtm7m-22" edge="1">
          <mxGeometry width="160" relative="1" as="geometry">
            <mxPoint x="280" y="480" as="sourcePoint" />
            <mxPoint x="440" y="480" as="targetPoint" />
            <Array as="points">
              <mxPoint x="235" y="26" />
              <mxPoint x="235" y="75" />
            </Array>
          </mxGeometry>
        </mxCell>
        <mxCell id="wYFcUYn46FQ1dUPHtm7m-25" value="" style="endArrow=block;dashed=1;endFill=0;endSize=12;html=1;rounded=0;exitX=0.5;exitY=0;exitDx=0;exitDy=0;entryX=0.5;entryY=1;entryDx=0;entryDy=0;" parent="1" source="wYFcUYn46FQ1dUPHtm7m-20" target="LPIogfHwZL9eY1G-cuku-7" edge="1">
          <mxGeometry width="160" relative="1" as="geometry">
            <mxPoint x="280" y="480" as="sourcePoint" />
            <mxPoint x="235" y="560" as="targetPoint" />
            <Array as="points">
              <mxPoint x="410" y="570" />
              <mxPoint x="870" y="570" />
            </Array>
          </mxGeometry>
        </mxCell>
        <mxCell id="wYFcUYn46FQ1dUPHtm7m-28" value="&lt;p style=&quot;margin:0px;margin-top:6px;text-align:center;&quot;&gt;&lt;b&gt;Client&lt;/b&gt;&lt;br&gt;&lt;/p&gt;&lt;hr&gt;&lt;p style=&quot;margin:0px;margin-left:8px;&quot;&gt;- id: int&lt;br&gt;-&amp;nbsp;phoneNumber: int&lt;/p&gt;&lt;p style=&quot;margin:0px;margin-left:8px;&quot;&gt;-&amp;nbsp;email: String&lt;/p&gt;&lt;p style=&quot;margin:0px;margin-left:8px;&quot;&gt;-&amp;nbsp;hashPassword: int&lt;/p&gt;&lt;p style=&quot;margin:0px;margin-left:8px;&quot;&gt;&lt;br&gt;&lt;/p&gt;&lt;p style=&quot;margin:0px;margin-left:8px;&quot;&gt;+ setPhoneNumber(int num)&lt;/p&gt;&lt;p style=&quot;margin:0px;margin-left:8px;&quot;&gt;+ getPhoneNumber(): int&lt;/p&gt;&lt;p style=&quot;margin:0px;margin-left:8px;&quot;&gt;+ setEmail(String email)&lt;/p&gt;&lt;p style=&quot;margin:0px;margin-left:8px;&quot;&gt;+ getEmail(): String&lt;/p&gt;&lt;p style=&quot;margin:0px;margin-left:8px;&quot;&gt;+ setPassword(int pass)&lt;/p&gt;&lt;p style=&quot;margin:0px;margin-left:8px;&quot;&gt;+ getPassword(): int&lt;/p&gt;" style="align=left;overflow=fill;html=1;dropTarget=0;whiteSpace=wrap;" parent="1" vertex="1">
          <mxGeometry x="80" y="836" width="180" height="200" as="geometry" />
        </mxCell>
        <mxCell id="wYFcUYn46FQ1dUPHtm7m-29" value="" style="shape=component;jettyWidth=8;jettyHeight=4;" parent="wYFcUYn46FQ1dUPHtm7m-28" vertex="1">
          <mxGeometry x="1" width="20" height="20" relative="1" as="geometry">
            <mxPoint x="-24" y="4" as="offset" />
          </mxGeometry>
        </mxCell>
        <mxCell id="wYFcUYn46FQ1dUPHtm7m-36" value="&lt;p style=&quot;margin:0px;margin-top:6px;text-align:center;&quot;&gt;&lt;b&gt;ImageTable&lt;/b&gt;&lt;br&gt;&lt;/p&gt;&lt;hr&gt;&lt;p style=&quot;margin:0px;margin-left:8px;&quot;&gt;- id: int&lt;br&gt;-&amp;nbsp;imageBit: String&lt;/p&gt;&lt;p style=&quot;margin:0px;margin-left:8px;&quot;&gt;&lt;br&gt;&lt;/p&gt;&lt;p style=&quot;margin:0px;margin-left:8px;&quot;&gt;+ setImage(String ImageBit)&lt;/p&gt;&lt;p style=&quot;margin:0px;margin-left:8px;&quot;&gt;+ getImage(): String&lt;/p&gt;" style="align=left;overflow=fill;html=1;dropTarget=0;whiteSpace=wrap;" parent="1" vertex="1">
          <mxGeometry x="610" y="910" width="200" height="110" as="geometry" />
        </mxCell>
        <mxCell id="wYFcUYn46FQ1dUPHtm7m-37" value="" style="shape=component;jettyWidth=8;jettyHeight=4;" parent="wYFcUYn46FQ1dUPHtm7m-36" vertex="1">
          <mxGeometry x="1" width="20" height="20" relative="1" as="geometry">
            <mxPoint x="-24" y="4" as="offset" />
          </mxGeometry>
        </mxCell>
        <mxCell id="wYFcUYn46FQ1dUPHtm7m-38" value="" style="line;strokeWidth=1;fillColor=none;align=left;verticalAlign=middle;spacingTop=-1;spacingLeft=3;spacingRight=3;rotatable=0;labelPosition=right;points=[];portConstraint=eastwest;strokeColor=inherit;" parent="1" vertex="1">
          <mxGeometry x="610" y="970" width="200" height="8" as="geometry" />
        </mxCell>
        <mxCell id="wYFcUYn46FQ1dUPHtm7m-41" value="&lt;p style=&quot;margin:0px;margin-top:6px;text-align:center;&quot;&gt;&lt;b&gt;KoeffPrice&lt;/b&gt;&lt;br&gt;&lt;/p&gt;&lt;hr&gt;&lt;p style=&quot;margin:0px;margin-left:8px;&quot;&gt;- id: int&lt;br&gt;-&amp;nbsp;koeff: Float&lt;/p&gt;&lt;p style=&quot;margin:0px;margin-left:8px;&quot;&gt;-&amp;nbsp;comment: String&lt;/p&gt;&lt;p style=&quot;margin:0px;margin-left:8px;&quot;&gt;&lt;br&gt;&lt;/p&gt;&lt;p style=&quot;margin:0px;margin-left:8px;&quot;&gt;+ setKoeff(Float value)&lt;/p&gt;&lt;p style=&quot;margin:0px;margin-left:8px;&quot;&gt;+getKoeff(): Float&lt;/p&gt;&lt;p style=&quot;margin:0px;margin-left:8px;&quot;&gt;+ setComment(String comment)&lt;/p&gt;&lt;p style=&quot;margin:0px;margin-left:8px;&quot;&gt;+ getComment(): String&lt;/p&gt;" style="align=left;overflow=fill;html=1;dropTarget=0;whiteSpace=wrap;" parent="1" vertex="1">
          <mxGeometry x="610" y="1036" width="200" height="160" as="geometry" />
        </mxCell>
        <mxCell id="wYFcUYn46FQ1dUPHtm7m-42" value="" style="shape=component;jettyWidth=8;jettyHeight=4;" parent="wYFcUYn46FQ1dUPHtm7m-41" vertex="1">
          <mxGeometry x="1" width="20" height="20" relative="1" as="geometry">
            <mxPoint x="-24" y="4" as="offset" />
          </mxGeometry>
        </mxCell>
        <mxCell id="wYFcUYn46FQ1dUPHtm7m-43" value="" style="line;strokeWidth=1;fillColor=none;align=left;verticalAlign=middle;spacingTop=-1;spacingLeft=3;spacingRight=3;rotatable=0;labelPosition=right;points=[];portConstraint=eastwest;strokeColor=inherit;" parent="1" vertex="1">
          <mxGeometry x="610" y="1112" width="200" height="8" as="geometry" />
        </mxCell>
        <mxCell id="wYFcUYn46FQ1dUPHtm7m-44" value="&lt;p style=&quot;margin:0px;margin-top:6px;text-align:center;&quot;&gt;&lt;b&gt;Hall&lt;/b&gt;&lt;br&gt;&lt;/p&gt;&lt;hr&gt;&lt;p style=&quot;margin:0px;margin-left:8px;&quot;&gt;- id: int&lt;br&gt;-&amp;nbsp;name: String&lt;/p&gt;&lt;p style=&quot;margin:0px;margin-left:8px;&quot;&gt;- BasePRrice: Float&lt;/p&gt;&lt;p style=&quot;margin:0px;margin-left:8px;&quot;&gt;&lt;br&gt;&lt;/p&gt;&lt;p style=&quot;margin:0px;margin-left:8px;&quot;&gt;&lt;span style=&quot;background-color: initial;&quot;&gt;+ setName(String name)&lt;/span&gt;&lt;br&gt;&lt;/p&gt;&lt;p style=&quot;margin:0px;margin-left:8px;&quot;&gt;+ getName(): String&lt;/p&gt;&lt;p style=&quot;margin:0px;margin-left:8px;&quot;&gt;+ setBasePrice(Float price)&lt;/p&gt;&lt;p style=&quot;margin:0px;margin-left:8px;&quot;&gt;+ getBasePrice(): Float&lt;/p&gt;&lt;p style=&quot;margin:0px;margin-left:8px;&quot;&gt;&lt;br&gt;&lt;/p&gt;" style="align=left;overflow=fill;html=1;dropTarget=0;whiteSpace=wrap;" parent="1" vertex="1">
          <mxGeometry x="890" y="930" width="200" height="160" as="geometry" />
        </mxCell>
        <mxCell id="wYFcUYn46FQ1dUPHtm7m-45" value="" style="shape=component;jettyWidth=8;jettyHeight=4;" parent="wYFcUYn46FQ1dUPHtm7m-44" vertex="1">
          <mxGeometry x="1" width="20" height="20" relative="1" as="geometry">
            <mxPoint x="-24" y="4" as="offset" />
          </mxGeometry>
        </mxCell>
        <mxCell id="wYFcUYn46FQ1dUPHtm7m-48" value="" style="line;strokeWidth=1;fillColor=none;align=left;verticalAlign=middle;spacingTop=-1;spacingLeft=3;spacingRight=3;rotatable=0;labelPosition=right;points=[];portConstraint=eastwest;strokeColor=inherit;" parent="1" vertex="1">
          <mxGeometry x="890" y="1006" width="200" height="8" as="geometry" />
        </mxCell>
        <mxCell id="wYFcUYn46FQ1dUPHtm7m-49" value="&lt;p style=&quot;margin:0px;margin-top:6px;text-align:center;&quot;&gt;&lt;b&gt;Table&lt;/b&gt;&lt;br&gt;&lt;/p&gt;&lt;hr&gt;&lt;p style=&quot;margin:0px;margin-left:8px;&quot;&gt;- id: int&lt;br&gt;-&amp;nbsp;countClient: int&lt;/p&gt;&lt;p style=&quot;margin:0px;margin-left:8px;&quot;&gt;- idImageTable: int&lt;/p&gt;&lt;p style=&quot;margin:0px;margin-left:8px;&quot;&gt;-&amp;nbsp;idHall: int&lt;/p&gt;&lt;p style=&quot;margin:0px;margin-left:8px;&quot;&gt;&lt;br&gt;&lt;/p&gt;&lt;p style=&quot;margin:0px;margin-left:8px;&quot;&gt;+ setCountClient(int count)&lt;/p&gt;&lt;p style=&quot;margin:0px;margin-left:8px;&quot;&gt;+ getCountClient: int&lt;/p&gt;&lt;p style=&quot;margin:0px;margin-left:8px;&quot;&gt;+ setImageTable(int hashImage)&lt;/p&gt;&lt;p style=&quot;margin:0px;margin-left:8px;&quot;&gt;+ getImage(): int&lt;/p&gt;&lt;p style=&quot;margin:0px;margin-left:8px;&quot;&gt;+ setHall(int idHall)&lt;/p&gt;&lt;p style=&quot;margin:0px;margin-left:8px;&quot;&gt;+ getHall(): int&lt;/p&gt;" style="align=left;overflow=fill;html=1;dropTarget=0;whiteSpace=wrap;" parent="1" vertex="1">
          <mxGeometry x="740" y="660" width="200" height="200" as="geometry" />
        </mxCell>
        <mxCell id="wYFcUYn46FQ1dUPHtm7m-50" value="" style="shape=component;jettyWidth=8;jettyHeight=4;" parent="wYFcUYn46FQ1dUPHtm7m-49" vertex="1">
          <mxGeometry x="1" width="20" height="20" relative="1" as="geometry">
            <mxPoint x="-24" y="4" as="offset" />
          </mxGeometry>
        </mxCell>
        <mxCell id="wYFcUYn46FQ1dUPHtm7m-51" value="" style="line;strokeWidth=1;fillColor=none;align=left;verticalAlign=middle;spacingTop=-1;spacingLeft=3;spacingRight=3;rotatable=0;labelPosition=right;points=[];portConstraint=eastwest;strokeColor=inherit;" parent="1" vertex="1">
          <mxGeometry x="740" y="756" width="200" height="8" as="geometry" />
        </mxCell>
        <mxCell id="wYFcUYn46FQ1dUPHtm7m-59" value="" style="line;strokeWidth=1;fillColor=none;align=left;verticalAlign=middle;spacingTop=-1;spacingLeft=3;spacingRight=3;rotatable=0;labelPosition=right;points=[];portConstraint=eastwest;strokeColor=inherit;" parent="1" vertex="1">
          <mxGeometry x="314" y="748" width="200" height="8" as="geometry" />
        </mxCell>
        <mxCell id="wYFcUYn46FQ1dUPHtm7m-60" value="" style="endArrow=open;html=1;endSize=12;startArrow=diamondThin;startSize=14;startFill=0;edgeStyle=orthogonalEdgeStyle;align=left;verticalAlign=bottom;rounded=0;exitX=0.995;exitY=0.162;exitDx=0;exitDy=0;exitPerimeter=0;entryX=-0.019;entryY=0.066;entryDx=0;entryDy=0;entryPerimeter=0;" parent="1" source="wYFcUYn46FQ1dUPHtm7m-20" target="wYFcUYn46FQ1dUPHtm7m-49" edge="1">
          <mxGeometry x="-1" y="3" relative="1" as="geometry">
            <mxPoint x="450" y="840" as="sourcePoint" />
            <mxPoint x="610" y="840" as="targetPoint" />
          </mxGeometry>
        </mxCell>
        <mxCell id="wYFcUYn46FQ1dUPHtm7m-64" value="" style="line;strokeWidth=1;fillColor=none;align=left;verticalAlign=middle;spacingTop=-1;spacingLeft=3;spacingRight=3;rotatable=0;labelPosition=right;points=[];portConstraint=eastwest;strokeColor=inherit;" parent="1" vertex="1">
          <mxGeometry x="450" y="390" width="200" height="8" as="geometry" />
        </mxCell>
        <mxCell id="LPIogfHwZL9eY1G-cuku-1" value="" style="line;strokeWidth=1;fillColor=none;align=left;verticalAlign=middle;spacingTop=-1;spacingLeft=3;spacingRight=3;rotatable=0;labelPosition=right;points=[];portConstraint=eastwest;strokeColor=inherit;" parent="1" vertex="1">
          <mxGeometry x="80" y="932" width="180" height="8" as="geometry" />
        </mxCell>
        <mxCell id="LPIogfHwZL9eY1G-cuku-2" value="+ setPresenter(Presenter Presenter)&lt;br&gt;&lt;div&gt;+ formPOST: Map formData&lt;/div&gt;&lt;div&gt;+ formGET(Json data)&lt;/div&gt;&lt;div&gt;+ haveAutorization(String [] data)&lt;/div&gt;" style="rounded=0;whiteSpace=wrap;html=1;align=left;" parent="1" vertex="1">
          <mxGeometry x="130" y="360" width="210" height="80" as="geometry" />
        </mxCell>
        <mxCell id="LPIogfHwZL9eY1G-cuku-4" value="" style="line;strokeWidth=1;fillColor=none;align=left;verticalAlign=middle;spacingTop=-1;spacingLeft=3;spacingRight=3;rotatable=0;labelPosition=right;points=[];portConstraint=eastwest;strokeColor=inherit;" parent="1" vertex="1">
          <mxGeometry x="270" y="60" width="210" height="8" as="geometry" />
        </mxCell>
        <mxCell id="LPIogfHwZL9eY1G-cuku-5" value="1" style="endArrow=open;html=1;endSize=12;startArrow=diamondThin;startSize=14;startFill=1;edgeStyle=orthogonalEdgeStyle;align=left;verticalAlign=bottom;rounded=0;exitX=-0.006;exitY=0.202;exitDx=0;exitDy=0;exitPerimeter=0;entryX=1;entryY=0.5;entryDx=0;entryDy=0;" parent="1" source="wYFcUYn46FQ1dUPHtm7m-18" target="wYFcUYn46FQ1dUPHtm7m-22" edge="1">
          <mxGeometry x="-1" y="3" relative="1" as="geometry">
            <mxPoint x="490" y="160" as="sourcePoint" />
            <mxPoint x="650" y="160" as="targetPoint" />
          </mxGeometry>
        </mxCell>
        <mxCell id="LPIogfHwZL9eY1G-cuku-6" value="«interface»&lt;br&gt;&lt;b&gt;iRepo&lt;/b&gt;" style="html=1;whiteSpace=wrap;" parent="1" vertex="1">
          <mxGeometry x="760" y="310" width="210" height="50" as="geometry" />
        </mxCell>
        <mxCell id="LPIogfHwZL9eY1G-cuku-7" value="+ setHall(int idHall)&lt;br&gt;+ getHall(): int&lt;br&gt;+ setTable(int idTable)&lt;br&gt;+ getTable(): int&lt;br&gt;+ setDateTime(DateTime dateTime)&lt;br&gt;+ getDateTime(): DateTime&lt;br&gt;+ setCountClient(int count)&lt;br&gt;+ getCountClient(): int&lt;br&gt;+ getDeposit(): Float&lt;br&gt;+ addInShedule(): bool" style="rounded=0;whiteSpace=wrap;html=1;align=left;" parent="1" vertex="1">
          <mxGeometry x="760" y="360" width="210" height="160" as="geometry" />
        </mxCell>
        <mxCell id="LPIogfHwZL9eY1G-cuku-8" value="1" style="endArrow=open;html=1;endSize=12;startArrow=diamondThin;startSize=14;startFill=1;edgeStyle=orthogonalEdgeStyle;align=left;verticalAlign=bottom;rounded=0;exitX=1;exitY=0.25;exitDx=0;exitDy=0;entryX=0;entryY=0.5;entryDx=0;entryDy=0;" parent="1" source="wYFcUYn46FQ1dUPHtm7m-18" target="LPIogfHwZL9eY1G-cuku-6" edge="1">
          <mxGeometry x="-1" y="3" relative="1" as="geometry">
            <mxPoint x="560" y="420" as="sourcePoint" />
            <mxPoint x="720" y="420" as="targetPoint" />
          </mxGeometry>
        </mxCell>
        <mxCell id="LPIogfHwZL9eY1G-cuku-9" value="" style="endArrow=open;html=1;endSize=12;startArrow=diamondThin;startSize=14;startFill=0;edgeStyle=orthogonalEdgeStyle;align=left;verticalAlign=bottom;rounded=0;exitX=-0.018;exitY=0.2;exitDx=0;exitDy=0;entryX=0.5;entryY=0;entryDx=0;entryDy=0;exitPerimeter=0;" parent="1" source="wYFcUYn46FQ1dUPHtm7m-20" target="wYFcUYn46FQ1dUPHtm7m-28" edge="1">
          <mxGeometry x="-1" y="3" relative="1" as="geometry">
            <mxPoint x="80" y="777.53" as="sourcePoint" />
            <mxPoint x="194" y="717.53" as="targetPoint" />
          </mxGeometry>
        </mxCell>
        <mxCell id="LPIogfHwZL9eY1G-cuku-12" value="" style="endArrow=open;html=1;endSize=12;startArrow=diamondThin;startSize=14;startFill=0;edgeStyle=orthogonalEdgeStyle;align=left;verticalAlign=bottom;rounded=0;exitX=0.993;exitY=0.447;exitDx=0;exitDy=0;exitPerimeter=0;entryX=0.5;entryY=0;entryDx=0;entryDy=0;" parent="1" source="wYFcUYn46FQ1dUPHtm7m-49" target="wYFcUYn46FQ1dUPHtm7m-44" edge="1">
          <mxGeometry x="-1" y="3" relative="1" as="geometry">
            <mxPoint x="840" y="770" as="sourcePoint" />
            <mxPoint x="1000" y="770" as="targetPoint" />
            <Array as="points">
              <mxPoint x="990" y="749" />
            </Array>
          </mxGeometry>
        </mxCell>
        <mxCell id="LPIogfHwZL9eY1G-cuku-14" value="" style="endArrow=open;html=1;endSize=12;startArrow=diamondThin;startSize=14;startFill=0;edgeStyle=orthogonalEdgeStyle;align=left;verticalAlign=bottom;rounded=0;exitX=0.002;exitY=0.362;exitDx=0;exitDy=0;exitPerimeter=0;" parent="1" source="wYFcUYn46FQ1dUPHtm7m-49" target="wYFcUYn46FQ1dUPHtm7m-36" edge="1">
          <mxGeometry x="-1" y="3" relative="1" as="geometry">
            <mxPoint x="570" y="790" as="sourcePoint" />
            <mxPoint x="730" y="790" as="targetPoint" />
          </mxGeometry>
        </mxCell>
        <mxCell id="LPIogfHwZL9eY1G-cuku-15" value="" style="endArrow=open;html=1;endSize=12;startArrow=diamondThin;startSize=14;startFill=0;edgeStyle=orthogonalEdgeStyle;align=left;verticalAlign=bottom;rounded=0;exitX=1;exitY=0.25;exitDx=0;exitDy=0;entryX=0;entryY=0.103;entryDx=0;entryDy=0;entryPerimeter=0;" parent="1" source="wYFcUYn46FQ1dUPHtm7m-20" target="wYFcUYn46FQ1dUPHtm7m-41" edge="1">
          <mxGeometry x="-1" y="3" relative="1" as="geometry">
            <mxPoint x="390" y="1000" as="sourcePoint" />
            <mxPoint x="550" y="1000" as="targetPoint" />
          </mxGeometry>
        </mxCell>
        <mxCell id="LPIogfHwZL9eY1G-cuku-16" value="&lt;p style=&quot;margin:0px;margin-top:6px;text-align:center;&quot;&gt;&lt;b&gt;Schedule&lt;/b&gt;&lt;br&gt;&lt;/p&gt;&lt;hr&gt;&lt;p style=&quot;margin:0px;margin-left:8px;&quot;&gt;- id: int&lt;br&gt;-&amp;nbsp;idClient: int&lt;/p&gt;&lt;p style=&quot;margin:0px;margin-left:8px;&quot;&gt;-&amp;nbsp;idTable: Int&lt;/p&gt;&lt;p style=&quot;margin:0px;margin-left:8px;&quot;&gt;-&amp;nbsp;dateTime: DateTime&lt;/p&gt;&lt;p style=&quot;margin:0px;margin-left:8px;&quot;&gt;-&amp;nbsp;countClientFact: int&lt;/p&gt;&lt;p style=&quot;margin:0px;margin-left:8px;&quot;&gt;-&amp;nbsp;idKoeff: int&lt;/p&gt;&lt;p style=&quot;margin:0px;margin-left:8px;&quot;&gt;&lt;br&gt;&lt;/p&gt;&lt;p style=&quot;margin:0px;margin-left:8px;&quot;&gt;+ addInShedule(): bool&lt;/p&gt;" style="align=left;overflow=fill;html=1;dropTarget=0;whiteSpace=wrap;" parent="1" vertex="1">
          <mxGeometry x="314" y="960" width="196" height="150" as="geometry" />
        </mxCell>
        <mxCell id="LPIogfHwZL9eY1G-cuku-17" value="" style="shape=component;jettyWidth=8;jettyHeight=4;" parent="LPIogfHwZL9eY1G-cuku-16" vertex="1">
          <mxGeometry x="1" width="20" height="20" relative="1" as="geometry">
            <mxPoint x="-24" y="4" as="offset" />
          </mxGeometry>
        </mxCell>
        <mxCell id="LPIogfHwZL9eY1G-cuku-18" value="" style="line;strokeWidth=1;fillColor=none;align=left;verticalAlign=middle;spacingTop=-1;spacingLeft=3;spacingRight=3;rotatable=0;labelPosition=right;points=[];portConstraint=eastwest;strokeColor=inherit;" parent="1" vertex="1">
          <mxGeometry x="314" y="1082" width="196" height="8" as="geometry" />
        </mxCell>
        <mxCell id="LPIogfHwZL9eY1G-cuku-19" value="" style="endArrow=open;html=1;endSize=12;startArrow=diamondThin;startSize=14;startFill=0;edgeStyle=orthogonalEdgeStyle;align=left;verticalAlign=bottom;rounded=0;exitX=-0.007;exitY=0.308;exitDx=0;exitDy=0;exitPerimeter=0;entryX=-0.023;entryY=0.132;entryDx=0;entryDy=0;entryPerimeter=0;" parent="1" source="wYFcUYn46FQ1dUPHtm7m-20" target="LPIogfHwZL9eY1G-cuku-16" edge="1">
          <mxGeometry x="-1" y="3" relative="1" as="geometry">
            <mxPoint x="570" y="810" as="sourcePoint" />
            <mxPoint x="730" y="810" as="targetPoint" />
            <Array as="points">
              <mxPoint x="280" y="749" />
              <mxPoint x="280" y="980" />
            </Array>
          </mxGeometry>
        </mxCell>
      </root>
    </mxGraphModel>
  </diagram>
</mxfile>
